<?xml version="1.0" standalone="no"?>
<!DOCTYPE svg PUBLIC "-//W3C//DTD SVG 20010904//EN"
 "http://www.w3.org/TR/2001/REC-SVG-20010904/DTD/svg10.dtd">
<svg version="1.0" xmlns="http://www.w3.org/2000/svg"
 width="230.000000pt" height="230.000000pt" viewBox="0 0 230.000000 230.000000"
 preserveAspectRatio="xMidYMid meet">

<g transform="translate(0.000000,230.000000) scale(0.100000,-0.100000)"
fill="#000000" stroke="none">
<path d="M958 2255 c-358 -60 -670 -301 -829 -639 -45 -97 -82 -227 -100 -354
-10 -74 -10 -109 0 -189 38 -293 138 -508 324 -697 197 -200 452 -312 736
-323 163 -7 267 7 410 53 359 117 633 411 732 786 19 71 23 109 23 268 0 199
-10 258 -70 410 -166 422 -583 703 -1037 699 -62 -1 -147 -7 -189 -14z m407
-54 c416 -86 741 -412 827 -830 29 -141 22 -369 -16 -495 -110 -368 -376 -634
-741 -742 -121 -36 -353 -45 -489 -20 -428 81 -754 402 -846 835 -31 142 -25
339 15 481 107 390 420 686 815 770 118 26 316 26 435 1z"/>
<path d="M1035 2169 c-155 -16 -330 -82 -474 -177 -80 -53 -208 -184 -267
-273 -130 -194 -198 -476 -164 -679 43 -261 131 -434 309 -610 135 -133 302
-223 491 -266 113 -26 329 -24 443 4 182 45 336 126 463 245 101 94 165 180
225 302 73 148 101 268 102 435 0 74 -5 162 -12 195 -41 197 -128 368 -258
505 -169 181 -385 289 -633 320 -94 11 -110 11 -225 -1z m252 -25 c93 -10 221
-52 327 -107 238 -125 410 -335 492 -603 26 -83 28 -102 28 -269 1 -204 -12
-268 -83 -421 -101 -216 -256 -373 -466 -475 -147 -72 -269 -101 -430 -102
-180 -1 -301 27 -460 105 -251 124 -440 358 -517 638 -20 74 -23 107 -22 255
0 155 3 178 27 260 122 404 453 680 871 725 69 7 116 6 233 -6z"/>
<path d="M1170 2099 c0 -5 5 -7 11 -3 8 5 10 -14 7 -65 -3 -53 0 -71 9 -71 9
0 13 19 13 66 0 55 3 65 15 60 9 -3 15 0 15 9 0 10 -11 15 -35 15 -19 0 -35
-5 -35 -11z"/>
<path d="M1078 2071 c-2 -17 -1 -28 3 -26 4 3 10 -15 13 -40 5 -30 12 -45 22
-45 10 0 14 6 11 18 -3 9 -11 41 -17 70 -13 58 -26 67 -32 23z"/>
<path d="M1316 2082 c-14 -23 -25 -63 -16 -57 6 3 10 -1 10 -10 0 -10 -6 -15
-13 -12 -8 3 -18 -7 -24 -24 -6 -16 -8 -29 -3 -29 4 0 10 9 13 20 7 28 27 25
27 -5 0 -16 6 -25 16 -25 13 0 14 11 8 73 -7 77 -9 84 -18 69z"/>
<path d="M974 2046 c-3 -14 1 -36 11 -53 9 -15 13 -19 9 -8 -4 11 -8 35 -8 53
1 38 -3 41 -12 8z"/>
<path d="M997 2049 c-3 -12 0 -34 8 -48 13 -25 13 -24 8 19 -7 54 -9 57 -16
29z"/>
<path d="M1397 2012 c-10 -31 -20 -63 -23 -69 -3 -7 1 -13 9 -13 8 0 17 13 21
30 3 18 12 30 21 30 19 0 19 -8 1 -42 -9 -18 -11 -30 -5 -34 14 -8 14 -8 42
68 19 52 21 68 11 72 -8 3 -15 -6 -19 -25 -4 -17 -13 -29 -22 -29 -15 0 -15
12 2 53 5 11 3 17 -6 17 -8 0 -22 -25 -32 -58z"/>
<path d="M780 2032 c-19 -16 -21 -22 -11 -40 6 -12 15 -22 19 -22 4 0 7 -18 7
-40 0 -28 4 -40 14 -40 10 0 12 9 7 40 -8 49 9 53 21 5 5 -23 12 -32 20 -27 9
6 5 25 -14 75 -15 37 -30 67 -34 67 -4 0 -17 -8 -29 -18z m30 -11 c0 -5 3 -16
6 -25 4 -10 1 -16 -9 -16 -16 0 -30 27 -21 41 7 12 24 12 24 0z"/>
<path d="M1058 1985 c-3 -14 -2 -25 2 -25 4 0 10 11 12 25 3 14 2 25 -2 25 -4
0 -10 -11 -12 -25z"/>
<path d="M1535 1975 c-16 -22 -38 -48 -48 -58 -10 -10 -16 -21 -13 -25 4 -3
12 3 20 13 16 23 36 12 29 -16 -4 -15 -2 -20 8 -17 14 5 40 91 36 122 -2 16
-7 13 -32 -19z m-4 -48 c-8 -8 -11 -7 -11 4 0 9 3 19 7 23 4 4 9 2 11 -4 3 -7
-1 -17 -7 -23z"/>
<path d="M681 1973 c1 -26 17 -71 18 -53 1 8 11 -1 23 -20 12 -19 23 -37 24
-39 2 -1 8 0 14 4 8 5 7 12 -3 23 -8 10 -25 36 -37 60 -25 44 -41 54 -39 25z"/>
<path d="M637 1964 c-3 -3 8 -29 25 -57 17 -29 31 -58 31 -65 0 -7 5 -11 11
-9 18 7 7 55 -19 83 -14 15 -25 33 -25 40 0 14 -12 19 -23 8z"/>
<path d="M1616 1935 c-38 -35 -51 -74 -31 -94 15 -15 15 -14 9 2 -7 19 36 90
65 107 15 9 15 9 0 10 -9 0 -28 -11 -43 -25z"/>
<path d="M1677 1933 c-4 -3 -7 -11 -7 -17 0 -6 5 -5 12 2 6 6 9 14 7 17 -3 3
-9 2 -12 -2z"/>
<path d="M563 1909 c-7 -7 -3 -18 14 -37 44 -47 64 -80 53 -87 -12 -7 -26 5
-67 62 -26 37 -32 41 -43 28 -8 -10 -9 -15 -2 -15 6 0 28 -24 49 -54 l39 -54
28 25 c16 13 35 22 43 19 8 -3 11 -1 8 4 -3 6 -11 10 -16 10 -11 0 -52 45 -80
86 -11 17 -18 21 -26 13z"/>
<path d="M1058 1899 c-370 -39 -658 -361 -658 -736 0 -123 22 -217 75 -328
182 -376 635 -528 1010 -339 136 69 258 190 325 324 53 105 72 177 77 301 9
184 -24 303 -125 457 -149 228 -418 350 -704 321z m268 -39 c236 -59 432 -241
508 -471 53 -158 45 -366 -18 -506 l-26 -55 -32 20 c-75 45 -186 107 -233 130
-27 13 -71 44 -96 69 -48 46 -58 46 -63 -1 -2 -12 -24 -57 -49 -99 -26 -42
-47 -80 -47 -85 0 -5 -9 -18 -21 -30 -11 -13 -21 -32 -22 -43 -1 -11 -7 -17
-14 -15 -7 3 -21 -7 -30 -21 -13 -19 -14 -28 -5 -31 18 -6 15 -17 -22 -75 -58
-90 -83 -97 -65 -19 12 57 9 101 -8 95 -7 -3 -13 0 -13 6 0 6 4 11 9 11 12 0
21 39 10 46 -5 3 -9 11 -9 18 0 17 32 14 65 -8 l26 -17 -12 23 c-15 30 -30 39
-51 32 -12 -4 -15 0 -11 16 7 25 12 25 29 3 19 -25 18 4 -1 37 -23 39 -18 50
19 50 38 0 57 16 31 26 -10 4 -15 14 -12 25 8 28 -18 23 -31 -6 -6 -14 -16
-25 -21 -25 -15 0 -29 24 -29 50 0 14 0 36 0 50 -3 72 -1 76 28 72 16 -2 36 1
47 7 15 10 14 11 -12 6 -16 -3 -37 0 -45 6 -12 8 -11 9 7 4 12 -3 24 -1 28 5
9 15 41 12 60 -6 15 -16 45 -13 45 4 0 12 -44 49 -69 57 -15 4 -23 1 -27 -10
-5 -13 -8 -14 -15 -3 -4 7 -16 13 -26 13 -10 0 -19 6 -19 13 -1 6 -3 15 -4 20
-1 4 -2 10 -2 13 1 4 5 42 11 85 10 79 3 114 -22 114 -7 0 -19 9 -27 20 -18
25 -73 36 -105 22 -18 -9 -25 -21 -30 -59 -3 -26 -8 -61 -10 -76 -3 -20 -1
-26 8 -21 9 6 9 5 0 -8 -7 -8 -9 -18 -5 -22 4 -4 7 -11 8 -14 0 -4 4 -15 8
-25 5 -9 6 -26 3 -37 -3 -14 1 -24 15 -31 17 -9 18 -12 5 -27 -9 -11 -13 -30
-10 -52 4 -28 2 -32 -7 -20 -13 16 -12 15 12 -54 10 -25 8 -31 -18 -52 -16
-14 -65 -42 -109 -63 -77 -37 -274 -133 -286 -139 -8 -4 -53 99 -76 173 -29
95 -24 295 9 397 40 122 91 203 187 298 70 69 104 95 181 133 52 26 124 54
160 62 99 21 252 19 346 -5z m-316 -404 c0 -8 9 -18 21 -21 11 -4 18 -9 15
-12 -2 -3 -19 2 -37 11 -17 9 -35 13 -40 10 -5 -3 -6 2 -3 10 8 20 44 21 44 2z
m30 -64 c0 -15 -24 -32 -47 -32 -25 0 -29 10 -11 28 13 13 58 16 58 4z m-74
-43 c3 -6 -5 -23 -20 -37 -14 -15 -26 -22 -26 -15 0 6 8 14 17 17 14 6 15 9 4
15 -7 5 -10 14 -7 20 9 14 23 14 32 0z m94 -68 c-6 -12 -15 -21 -20 -21 -5 0
-1 13 8 30 19 32 30 24 12 -9z m-40 -39 c0 -12 -30 -52 -40 -52 -11 0 0 43 14
52 14 10 26 10 26 0z m-35 -112 c-4 -11 -2 -20 4 -20 6 0 8 -7 5 -15 -4 -8
-10 -12 -15 -9 -13 7 -11 64 2 64 6 0 8 -9 4 -20z m35 -197 c0 -27 -38 -13
-49 18 -17 50 -13 55 19 24 17 -16 30 -35 30 -42z m80 -8 c0 -8 -6 -15 -14
-15 -8 0 -21 -8 -28 -18 -23 -33 -35 -33 -30 -1 3 20 9 28 17 25 8 -3 16 2 19
10 7 19 36 18 36 -1z m462 -64 c-2 -21 2 -51 8 -67 9 -27 9 -28 -5 -10 -15 20
-23 137 -8 122 4 -3 6 -24 5 -45z m156 -87 l-3 -39 -5 47 c-3 26 -1 43 3 39 5
-5 7 -26 5 -47z m-191 14 c-3 -8 -6 -5 -6 6 -1 11 2 17 5 13 3 -3 4 -12 1 -19z
m-14 -18 c3 -11 1 -20 -4 -20 -5 0 -9 9 -9 20 0 11 2 20 4 20 2 0 6 -9 9 -20z
m-503 -20 c0 -5 -7 -7 -15 -4 -8 4 -15 8 -15 10 0 2 7 4 15 4 8 0 15 -4 15
-10z m322 -2 c-15 -15 -16 -87 -2 -124 6 -15 8 -29 5 -32 -10 -10 -16 5 -22
57 -5 45 -8 50 -21 39 -13 -11 -14 -10 -7 2 18 32 47 70 53 70 3 0 1 -5 -6
-12z m148 -26 c0 -7 -4 -10 -10 -7 -5 3 -10 16 -10 28 0 18 2 19 10 7 5 -8 10
-21 10 -28z m-477 12 c3 -3 3 -13 0 -21 -5 -12 -7 -12 -14 -1 -15 23 -4 40 14
22z m441 -29 c5 -22 4 -26 -4 -15 -5 8 -10 24 -10 34 0 26 6 18 14 -19z m-30
-25 c4 -25 3 -31 -4 -20 -5 8 -10 26 -10 39 0 32 6 24 14 -19z m-427 -12 c-3
-8 -6 -5 -6 6 -1 11 2 17 5 13 3 -3 4 -12 1 -19z m403 -21 c0 -5 -4 -5 -10 -2
-5 3 -10 14 -10 23 0 15 2 15 10 2 5 -8 10 -19 10 -23z m-38 -6 c2 -17 1 -28
-4 -25 -8 5 -12 54 -4 54 2 0 6 -13 8 -29z m-69 -110 c-9 -13 -17 17 -19 72
l-3 62 12 -65 c7 -36 11 -67 10 -69z m-51 -38 c6 -8 8 -16 5 -19 -16 -16 -42
91 -30 122 6 13 9 2 11 -36 2 -30 8 -60 14 -67z m-57 37 c0 -49 -4 -70 -12
-70 -16 0 -17 51 -2 103 5 20 11 37 12 37 2 0 2 -31 2 -70z"/>
<path d="M1022 1804 c-30 -11 -58 -34 -92 -75 -56 -67 -74 -118 -92 -252 -12
-92 -3 -174 27 -242 7 -16 16 -37 19 -45 3 -8 4 3 1 25 -2 22 -7 66 -11 97 -4
35 -11 55 -17 51 -6 -4 -7 4 -2 23 5 16 9 54 10 84 2 105 46 207 111 256 29
23 37 25 45 13 6 -10 11 -11 17 -3 11 17 64 27 185 34 10 1 34 -12 53 -27 20
-15 48 -35 64 -44 16 -9 27 -19 24 -22 -4 -3 1 -30 9 -59 26 -88 30 -111 29
-156 l0 -44 24 23 c13 13 20 27 16 33 -4 6 -9 36 -10 66 -4 65 -19 118 -41
143 -80 91 -152 129 -254 133 -48 3 -86 -2 -115 -12z m328 -84 c0 -5 -2 -10
-4 -10 -3 0 -8 5 -11 10 -3 6 -1 10 4 10 6 0 11 -4 11 -10z m55 -101 c11 -17
-1 -21 -15 -4 -8 9 -8 15 -2 15 6 0 14 -5 17 -11z m-545 -180 c0 -6 -4 -7 -10
-4 -5 3 -10 11 -10 16 0 6 5 7 10 4 6 -3 10 -11 10 -16z"/>
<path d="M970 1601 c0 -12 26 -32 33 -25 9 10 -4 34 -19 34 -8 0 -14 -4 -14
-9z"/>
<path d="M954 1558 c1 -18 6 -32 9 -30 4 1 11 2 16 2 13 0 -2 53 -16 57 -7 3
-11 -8 -9 -29z"/>
<path d="M1164 1474 c9 -8 16 -19 16 -24 0 -5 8 -7 18 -4 13 5 14 4 3 -4 -8
-6 -20 -8 -26 -6 -21 8 -27 -27 -8 -42 24 -18 54 -17 79 1 12 8 25 11 29 7 5
-4 5 -1 1 6 -5 7 -15 11 -23 8 -8 -3 -11 -1 -8 4 3 6 1 10 -4 10 -6 0 -11 4
-11 10 0 5 7 7 15 4 8 -4 15 -3 15 0 0 4 -10 11 -22 16 l-23 9 23 0 c12 1 22
6 22 11 0 6 -25 10 -56 10 -50 0 -54 -1 -40 -16z m56 -74 c0 -5 -5 -10 -11
-10 -5 0 -7 5 -4 10 3 6 8 10 11 10 2 0 4 -4 4 -10z"/>
<path d="M1467 1439 c4 -13 8 -18 11 -10 2 7 -1 18 -6 23 -8 8 -9 4 -5 -13z"/>
<path d="M1416 1345 c8 -37 10 -39 17 -23 2 8 -2 23 -10 33 -13 19 -14 18 -7
-10z"/>
<path d="M1148 1253 c7 -3 16 -2 19 1 4 3 -2 6 -13 5 -11 0 -14 -3 -6 -6z"/>
<path d="M1110 1090 c0 -5 4 -10 9 -10 6 0 13 5 16 10 3 6 -1 10 -9 10 -9 0
-16 -4 -16 -10z"/>
<path d="M1329 1023 c-13 -16 -12 -17 4 -4 16 13 21 21 13 21 -2 0 -10 -8 -17
-17z"/>
<path d="M1260 1005 c-17 -10 -20 -14 -9 -15 9 0 22 7 29 15 15 18 12 18 -20
0z"/>
<path d="M1279 983 c-13 -15 -12 -15 9 -4 23 12 28 21 13 21 -5 0 -15 -7 -22
-17z"/>
<path d="M1223 960 c-34 -14 -28 -21 7 -9 17 6 30 13 30 15 0 6 -12 4 -37 -6z"/>
<path d="M1798 1833 c-1 -5 -24 -27 -50 -50 -26 -24 -42 -45 -37 -49 6 -3 23
6 39 21 18 18 30 23 35 15 8 -13 -12 -39 -40 -50 -18 -8 -17 -9 6 -9 35 -1 52
21 44 57 -4 20 -1 33 9 41 19 16 39 4 31 -18 -5 -13 -4 -13 6 -4 10 10 9 17
-6 33 -19 21 -31 25 -37 13z"/>
<path d="M450 1805 c0 -12 83 -125 88 -120 3 2 -1 11 -7 19 -18 22 -5 38 19
24 11 -7 23 -9 27 -4 4 4 1 12 -7 17 -81 48 -120 70 -120 64z m68 -63 c6 -18
-15 -14 -22 4 -4 10 -1 14 6 12 6 -2 14 -10 16 -16z"/>
<path d="M1860 1709 c-25 -40 -56 -66 -67 -55 -3 3 0 13 8 22 13 16 12 16 -10
5 -20 -11 -21 -15 -9 -27 12 -12 20 -12 55 2 25 10 40 21 37 29 -3 7 4 20 16
28 12 9 19 20 15 26 -11 18 -19 12 -45 -30z"/>
<path d="M367 1710 c-14 -23 -14 -29 -3 -33 10 -4 12 0 9 14 -7 26 -1 24 57
-13 52 -34 61 -51 35 -65 -13 -8 -13 -11 1 -28 8 -11 12 -14 9 -7 -11 21 15
62 39 63 16 0 12 4 -14 16 -19 8 -53 30 -76 48 l-41 34 -16 -29z"/>
<path d="M1906 1694 c-11 -8 -16 -14 -10 -14 13 0 39 18 34 24 -3 2 -14 -2
-24 -10z"/>
<path d="M412 1645 c15 -16 30 -26 33 -23 4 3 -9 16 -27 28 l-33 23 27 -28z"/>
<path d="M1889 1621 c-30 -20 -54 -42 -51 -49 2 -8 13 -4 33 10 28 21 29 21
43 3 12 -17 18 -18 40 -7 28 12 32 31 16 63 -14 25 -15 24 -81 -20z m81 -1 c0
-14 -39 -32 -52 -24 -7 5 -5 11 7 21 22 15 45 17 45 3z"/>
<path d="M305 1612 c-10 -10 -5 -19 20 -30 14 -6 25 -16 25 -22 0 -15 -27 -12
-44 6 -15 14 -17 14 -22 -1 -4 -9 -5 -17 -3 -18 74 -41 129 -62 133 -51 3 7
-8 17 -25 24 -16 7 -29 19 -29 26 0 18 4 17 40 -1 20 -10 31 -12 35 -4 4 6 5
11 4 12 -71 37 -130 63 -134 59z"/>
<path d="M1935 1541 c-30 -13 -58 -48 -52 -66 13 -33 126 -7 142 33 13 34 -40
53 -90 33z m82 -18 c4 -11 -85 -53 -111 -53 -35 0 -13 30 37 49 54 21 68 22
74 4z"/>
<path d="M250 1475 c-16 -19 -8 -40 22 -59 39 -25 82 -30 101 -12 22 23 12 43
-34 66 -46 24 -72 25 -89 5z m85 -25 c44 -19 53 -40 17 -40 -26 1 -102 38
-102 50 0 16 34 12 85 -10z"/>
<path d="M1983 1422 c-65 -16 -73 -25 -53 -63 13 -23 33 -24 54 -3 9 9 24 13
35 9 11 -3 26 1 35 10 22 22 20 28 -3 15 -28 -15 -51 -12 -51 5 0 10 10 15 30
15 20 0 30 5 30 15 0 17 4 17 -77 -3z m7 -31 c0 -15 -29 -33 -45 -27 -20 7
-19 23 3 29 29 8 42 7 42 -2z"/>
<path d="M243 1361 c-9 -11 -20 -18 -24 -16 -4 3 -9 -2 -13 -10 -3 -8 -2 -15
3 -15 4 0 13 -11 19 -25 22 -48 73 -52 115 -10 29 28 -23 95 -74 95 -5 0 -17
-9 -26 -19z m65 -16 c12 -3 22 -12 22 -20 0 -10 -9 -11 -42 -2 -51 12 -52 13
-43 27 4 6 14 9 23 6 10 -2 27 -7 40 -11z m11 -51 c3 -3 0 -9 -7 -13 -18 -11
-59 -2 -74 17 -12 14 -8 14 32 8 24 -4 47 -9 49 -12z"/>
<path d="M2005 1300 l-40 -7 35 -1 c19 -1 42 3 50 8 16 11 14 11 -45 0z"/>
<path d="M2047 1283 c-4 -3 -24 -6 -44 -5 -30 0 -34 -2 -18 -8 29 -12 39 -12
61 5 10 8 16 15 13 15 -3 0 -9 -3 -12 -7z"/>
<path d="M230 1176 c-28 -34 11 -93 47 -70 32 20 39 41 19 63 -22 24 -49 27
-66 7z"/>
<path d="M1996 1168 c-13 -19 -14 -25 -2 -43 26 -39 76 -26 76 19 0 46 -48 62
-74 24z"/>
<path d="M305 1039 c-16 -3 -47 -7 -67 -8 -26 -1 -38 -6 -38 -15 0 -11 9 -13
37 -9 26 4 34 3 29 -5 -5 -8 0 -12 13 -12 14 0 19 5 15 15 -5 11 1 15 21 15
22 0 26 -4 22 -20 -3 -11 -1 -20 4 -20 11 0 12 57 2 63 -5 2 -21 0 -38 -4z"/>
<path d="M2000 1023 c14 -3 30 -9 35 -15 7 -6 1 -7 -17 -3 -38 10 -36 0 2 -14
18 -6 28 -6 25 -1 -4 6 0 10 7 10 8 1 6 6 -6 15 -11 8 -31 14 -45 14 l-26 -2
25 -4z"/>
<path d="M1930 950 c0 -6 7 -10 15 -10 8 0 15 2 15 4 0 2 -7 6 -15 10 -8 3
-15 1 -15 -4z"/>
<path d="M275 941 c-11 -5 -28 -18 -39 -30 -41 -46 38 -70 102 -31 67 41 15
92 -63 61z m85 -22 c0 -14 -63 -39 -100 -39 -16 0 -30 5 -30 10 0 6 1 10 3 10
1 0 20 7 42 15 48 17 85 19 85 4z"/>
<path d="M1995 919 c6 -9 -3 -11 -39 -7 -35 4 -46 2 -46 -8 0 -11 18 -14 77
-14 42 0 74 2 72 4 -15 14 -70 36 -64 25z"/>
<path d="M329 832 c-53 -27 -71 -54 -50 -75 7 -7 8 -4 5 10 -5 18 4 24 55 44
34 13 61 27 61 31 0 18 -22 15 -71 -10z"/>
<path d="M1894 845 c-9 -23 2 -43 38 -65 41 -25 71 -25 89 -2 12 15 12 16 -1
5 -13 -10 -26 -7 -68 12 -30 14 -52 31 -52 40 0 20 6 19 65 -10 27 -13 51 -23
52 -21 2 2 -10 15 -27 30 -35 29 -87 35 -96 11z"/>
<path d="M358 779 c-76 -38 -74 -45 2 -12 33 15 60 30 60 35 0 4 -1 8 -2 7 -2
-1 -29 -14 -60 -30z"/>
<path d="M1836 745 c-19 -29 -20 -35 -3 -35 7 0 36 -16 64 -35 32 -22 54 -31
58 -24 4 6 5 11 4 13 -2 1 -17 10 -32 20 -36 22 -27 33 13 16 23 -10 34 -10
43 -1 8 8 7 11 -6 11 -22 0 -58 20 -75 43 -19 24 -47 21 -66 -8z m52 -18 c3
-16 1 -17 -17 -7 -25 13 -28 33 -4 28 10 -2 19 -11 21 -21z"/>
<path d="M378 724 c-32 -19 -58 -40 -58 -47 0 -8 3 -8 8 -2 11 16 63 47 69 41
3 -2 -7 -20 -21 -39 -14 -19 -26 -37 -26 -40 0 -5 93 39 129 61 2 1 2 5 -2 8
-3 3 -16 -1 -29 -10 -35 -25 -42 -19 -19 18 36 57 29 59 -51 10z"/>
<path d="M1795 680 c-3 -5 0 -10 7 -10 7 0 33 -18 58 -39 35 -31 42 -42 33
-51 -9 -10 -23 -5 -62 24 -27 20 -51 42 -53 48 -3 7 -7 5 -11 -5 -4 -12 6 -26
40 -52 50 -38 74 -43 93 -20 10 13 9 19 -6 36 -36 41 -92 80 -99 69z"/>
<path d="M488 670 c-1 -5 -26 -27 -55 -48 -52 -39 -52 -39 -33 -60 13 -14 27
-19 42 -15 35 9 75 40 81 63 6 22 -8 27 -20 7 -22 -36 -93 -72 -93 -48 0 12
90 77 102 73 5 -1 4 7 -2 18 -12 22 -17 25 -22 10z"/>
<path d="M1708 584 c-15 -16 -13 -21 30 -69 47 -54 64 -59 83 -24 13 25 -5 59
-30 59 -12 0 -21 10 -25 25 -7 29 -34 33 -58 9z m87 -62 c8 -7 15 -20 15 -29
0 -11 -17 0 -49 32 -27 27 -47 53 -44 58 3 5 18 -3 34 -19 15 -16 35 -35 44
-42z"/>
<path d="M521 555 c-30 -19 -59 -36 -65 -38 -6 -2 -7 -8 -3 -13 4 -5 12 -2 17
5 5 8 15 11 25 7 17 -6 17 -8 1 -25 -13 -14 -14 -21 -6 -26 7 -4 15 -3 19 2
51 78 73 114 70 118 -3 2 -29 -12 -58 -30z m4 -24 c-3 -6 -11 -11 -17 -11 -6
0 -6 6 2 15 14 17 26 13 15 -4z"/>
<path d="M596 534 c-5 -14 -4 -15 9 -4 31 26 15 -12 -25 -60 -34 -41 -38 -49
-25 -60 12 -10 15 -10 15 1 0 8 19 34 41 59 35 39 40 41 35 20 -5 -24 -5 -24
10 -5 14 18 13 22 -11 43 -31 26 -41 27 -49 6z"/>
<path d="M677 457 c-9 -18 -25 -46 -37 -64 -11 -17 -17 -34 -12 -37 5 -3 27
24 50 59 28 44 36 65 28 68 -8 3 -20 -9 -29 -26z"/>
<path d="M1563 473 c-7 -2 -13 -15 -13 -28 0 -27 10 -36 60 -50 38 -11 55 -45
23 -45 -11 0 -24 5 -31 12 -14 14 -16 0 -4 -20 7 -10 15 -10 36 -2 41 15 32
50 -21 75 -50 24 -57 30 -48 44 4 8 12 8 25 1 16 -8 18 -8 14 5 -6 15 -18 18
-41 8z"/>
<path d="M743 432 c-27 -21 -55 -85 -47 -106 9 -25 50 -19 73 9 26 34 37 84
21 98 -9 8 -11 8 -7 1 9 -16 -42 -114 -59 -114 -21 0 -17 18 16 77 17 29 29
53 28 53 -2 0 -13 -8 -25 -18z"/>
<path d="M1484 414 c3 -9 6 -24 6 -35 0 -10 5 -18 11 -16 6 1 14 -4 17 -12 3
-8 0 -11 -7 -7 -13 9 -14 -20 0 -49 8 -17 8 -15 4 8 -6 31 18 38 34 10 6 -12
13 -15 20 -8 6 7 -4 29 -32 67 -40 55 -66 75 -53 42z"/>
<path d="M832 383 c-22 -63 -24 -68 -8 -43 l15 25 2 -32 c1 -18 3 -37 4 -43 1
-5 3 -16 4 -22 2 -7 11 7 22 31 11 24 17 46 14 49 -3 3 -5 0 -5 -6 0 -7 -4
-12 -10 -12 -5 0 -10 18 -10 40 0 46 -14 52 -28 13z"/>
<path d="M890 374 c0 -8 5 -12 10 -9 6 3 10 10 10 16 0 5 -4 9 -10 9 -5 0 -10
-7 -10 -16z"/>
<path d="M1367 384 c-3 -3 -2 -14 3 -23 4 -9 13 -27 19 -41 l11 -25 -6 25 c-6
23 -3 22 36 -15 l43 -40 -7 29 c-4 16 -13 43 -21 60 l-14 31 5 -30 6 -30 -31
33 c-33 34 -34 35 -44 26z"/>
<path d="M1298 295 c-2 -41 0 -75 5 -75 4 0 7 19 7 42 0 23 3 38 8 34 4 -4 8
-11 8 -14 7 -31 19 -52 30 -52 8 0 14 2 14 4 0 9 -60 136 -64 136 -2 0 -6 -34
-8 -75z"/>
<path d="M1193 354 c-7 -3 -12 -15 -12 -27 1 -17 2 -18 6 -4 2 9 9 17 14 17 8
0 13 -45 12 -112 0 -10 8 -18 18 -18 14 0 16 5 8 38 -5 20 -8 53 -8 72 0 34 0
34 15 15 l16 -20 -4 20 c-3 20 -39 30 -65 19z"/>
<path d="M1116 328 c-9 -34 -7 -50 4 -43 6 3 10 -1 10 -10 0 -11 -5 -15 -14
-12 -9 4 -16 -3 -20 -16 -8 -30 -7 -37 3 -37 5 0 8 8 7 18 0 9 6 17 14 17 8 0
14 -8 14 -17 -1 -11 5 -18 16 -18 16 0 16 4 4 52 -8 29 -14 60 -14 70 0 26
-17 22 -24 -4z"/>
<path d="M1021 306 c-11 -20 -12 -31 -3 -48 10 -21 10 -20 5 8 -3 17 0 34 5
38 7 4 10 -5 10 -24 -1 -46 9 -47 14 -1 2 21 0 37 -3 35 -4 -2 -9 1 -11 7 -2
6 -10 -1 -17 -15z"/>
<path d="M796 294 c-8 -20 -8 -24 2 -24 4 0 8 9 9 20 2 24 -3 26 -11 4z"/>
<path d="M1400 284 c0 -13 18 -39 24 -34 2 3 -2 14 -10 24 -8 11 -14 16 -14
10z"/>
</g>
</svg>
